<?xml version="1.0" standalone="no"?>
<svg xmlns:xlink="http://www.w3.org/1999/xlink" id="wave" style="transform:rotate(180deg); transition: 0.3s" viewBox="0 0 1440 230" version="1.1" xmlns="http://www.w3.org/2000/svg"><defs><linearGradient id="sw-gradient-0" x1="0" x2="0" y1="1" y2="0"><stop stop-color="rgba(183, 33, 255, 1)" offset="0%" data-darkreader-inline-stopcolor="" style="--darkreader-inline-stopcolor:#7c00b8;"/><stop stop-color="rgba(33, 212, 253, 1)" offset="100%" data-darkreader-inline-stopcolor="" style="--darkreader-inline-stopcolor:#0296b8;"/></linearGradient></defs><path style="transform:translate(0, 0px); opacity:1" fill="url(#sw-gradient-0)" d="M0,115L48,115C96,115,192,115,288,103.5C384,92,480,69,576,76.7C672,84,768,123,864,115C960,107,1056,54,1152,49.8C1248,46,1344,92,1440,99.7C1536,107,1632,77,1728,53.7C1824,31,1920,15,2016,34.5C2112,54,2208,107,2304,118.8C2400,130,2496,100,2592,99.7C2688,100,2784,130,2880,130.3C2976,130,3072,100,3168,95.8C3264,92,3360,115,3456,111.2C3552,107,3648,77,3744,65.2C3840,54,3936,61,4032,61.3C4128,61,4224,54,4320,65.2C4416,77,4512,107,4608,107.3C4704,107,4800,77,4896,88.2C4992,100,5088,153,5184,157.2C5280,161,5376,115,5472,92C5568,69,5664,69,5760,65.2C5856,61,5952,54,6048,61.3C6144,69,6240,92,6336,84.3C6432,77,6528,38,6624,46C6720,54,6816,107,6864,134.2L6912,161L6912,230L6864,230C6816,230,6720,230,6624,230C6528,230,6432,230,6336,230C6240,230,6144,230,6048,230C5952,230,5856,230,5760,230C5664,230,5568,230,5472,230C5376,230,5280,230,5184,230C5088,230,4992,230,4896,230C4800,230,4704,230,4608,230C4512,230,4416,230,4320,230C4224,230,4128,230,4032,230C3936,230,3840,230,3744,230C3648,230,3552,230,3456,230C3360,230,3264,230,3168,230C3072,230,2976,230,2880,230C2784,230,2688,230,2592,230C2496,230,2400,230,2304,230C2208,230,2112,230,2016,230C1920,230,1824,230,1728,230C1632,230,1536,230,1440,230C1344,230,1248,230,1152,230C1056,230,960,230,864,230C768,230,672,230,576,230C480,230,384,230,288,230C192,230,96,230,48,230L0,230Z"/></svg>